<svg xmlns="http://www.w3.org/2000/svg" width="619.045" height="391.739" viewBox="0 0 619.045 391.739"><path fill="#007AC0" d="M187.537 51.9c-65.141-30.418-142.648-2.312-173.125 62.825-30.461 65.122-2.336 142.64 62.813 173.1 65.117 30.473 142.64 2.359 173.093-62.749 30.485-65.184 2.36-142.638-62.781-173.176m-77.828 289.607c5.109-4.272 6.445-18.024 9.992-35.208-1.555 0-3.664-2.098-5.211-2.153-1.812 16.083-3.18 28.707-4.781 37.361"/><path fill="#007AC0" d="M154.998 0c-5.109 4.182-6.453 17.977-10.023 35.167 1.578 0 3.664 2.083 5.257 2.194 1.782-16.099 3.157-28.735 4.766-37.361"/><path fill="none" d="M2.123 2.263V341.51h616.922V2.263"/><path fill="#95B6DF" d="M240.021 200.396c-.461 3.12-.82 4.093-1.945 7.57-1.157 3.886-2.477 7.716-4.016 11.441a115.344 115.344 0 0 1-13.211 23.768c-2.008 2.753-4.133 5.355-6.328 7.853-6.266 2.968-13.063 5.583-20.359 7.777-5.688 1.726-11.594 3.16-17.68 4.348 6.414-7.385 11.797-15.23 16.289-23.332a271.19 271.19 0 0 1-3.891 1.519 142.099 142.099 0 0 1-15.156 22.303c-15.961 2.87-33.023 3.94-50.336 3.063-2.133-.103-4.258-.282-6.367-.448.336-3.886.695-7.956 1.094-12.18-.758-.048-1.532-.097-2.282-.152a898.027 898.027 0 0 0-.359 12.222c-16.742-1.414-32.914-4.623-47.789-9.405-4-7.619-7.125-15.216-9.539-22.725a39.28 39.28 0 0 0-2.148-1.063l-.782-.413c2.696 7.963 6.164 15.858 10.547 23.56-4.125-1.374-8.172-2.829-12.07-4.452-3.649-1.518-7.11-3.152-10.485-4.851-12.804-18.148-20.023-35.684-23.468-52.066l-.149-.684-.078-.394-.265-1.324-.102-.621a117.738 117.738 0 0 1-1.328-9.136l.039.047c-.313-2.657-.484-4.802-.516-6.527-.617-12.388.742-23.897 3.196-34.207.429-1.774.89-3.527 1.398-5.26 5.266 8.758 15.18 16.936 28.352 23.794-1.68 8.827-2.555 18.198-2.485 27.853a416.125 416.125 0 0 0 3.438 2.938c-.11-10.24.828-20.011 2.398-29.099l.031.013c.18-1.366.446-2.732.797-4.244l-.039-.014.258-1.271c3.797-18.396 10.828-34.979 19.555-49.264 7.773 4.416 16.718 8.157 26.422 11.13l2.687-2.696c-10.109-2.893-19.445-6.598-27.492-11.034 9.914-15.582 21.797-28.259 33.516-37.354 6.273 4.389 16.265 7.729 28.429 9.171-1.414 6.244-2.844 13.408-4.297 21.392l2.336 2.968 1.039-4.168c.953-7.294 1.891-13.987 2.844-19.985l1.023.118c12.907 1.124 25.547-.808 33.415-4.935 9.281 11.104 17.992 26.085 24.148 43.599-6.906 2.623-14.891 4.563-23.617 5.764l2.429 3.174c8.18-1.284 15.711-3.229 22.25-5.797a157.07 157.07 0 0 1 7.735 43.109l.023.165.008.532c.024.967.086 1.918.102 2.884l-.063.028c.024 1.67.031 3.181 0 4.582l.047-.021c-.047 2.561-.117 5.133-.305 7.721a165.918 165.918 0 0 1-2.554 20.116c1.304-.297 2.578-.6 3.828-.91 1.515-8.053 2.32-15.989 2.437-23.608.016-1.552.016-3.084 0-4.609 9.961-3.967 18.36-8.861 24.633-14.525 2.156-1.981 4.024-3.988 5.563-6.038 1.086 5.596 1.836 11.262 2.179 16.961a125.292 125.292 0 0 1-2.984 35.329M51.607 86.836c3.609 6.563 10.297 12.974 19.742 18.785-7.812 12.849-14.391 28.024-19.023 45.703a151.502 151.502 0 0 0-1.172 4.894l-.555-.284c-13.094-6.872-22.375-14.87-27.391-23.346 5.978-17.914 16.228-33.281 28.399-45.752m50.961-32.689l-.344 1.546c-.32 3.809 1.75 7.445 5.68 10.606-12.68 8.661-24.797 20.813-34.961 36.753-9.117-5.451-15.813-11.517-19.742-17.817 15.126-14.973 33.007-25.56 49.367-31.088m75.673 15.113c1.562-1.338 2.672-2.712 3.257-4.182.258-.745.438-1.456.485-2.194l-.055-1.063c10.711 6.425 20.727 14.933 29.547 25.284a128.04 128.04 0 0 1 9.336 12.353c-1.68 2.657-3.961 5.176-6.836 7.521-3.477 2.788-7.734 5.225-12.578 7.309-6.367-17.625-15.563-31.979-26.078-42.972a19.834 19.834 0 0 0 2.922-2.056m61.717 74.633c-1.585 2.126-3.492 4.195-5.711 6.197-6.023 5.45-14.117 10.172-23.71 14.021-.563-17.438-3.461-33.034-8.063-46.738 4.672-2.077 8.805-4.485 12.195-7.225 3.305-2.638 5.813-5.535 7.5-8.579 8.313 12.981 14.369 27.342 17.789 42.324m4.853 54.495c2.414-10.896 3.383-22.42 2.664-34.255-.437-7.419-1.539-14.664-3.187-21.683l.632-1.435c1.047-2.644 1.664-5.267 1.813-8.021a23.404 23.404 0 0 0-.828-7.231c.039.76.062 1.595 0 2.422-.102 2.968-.735 5.776-1.867 8.557l-.75 1.705c-4.032-14.974-10.672-28.853-19.368-40.97.547-1.802.821-3.623.844-5.5 0-1.483-.219-2.994-.578-4.514l.063.691c0 2.587-.532 5.112-1.524 7.597l-.023.063c-10.954-14.755-24.961-26.79-40.922-34.87l-.266-.987.039.697-.031.158a108.666 108.666 0 0 0-9.211-4.126c3.086 1.428 6.109 3.07 9.102 4.838l-.485 1.69c-.562 1.401-1.578 2.745-2.992 3.96-1.125.96-2.508 1.822-4.133 2.574-5.195-5.196-10.672-9.599-16.273-13.18 4.976 3.256 10.133 7.888 15.164 13.657-7.266 3.002-18.492 4.077-31.602 2.89l-.781-.068c1.328-8.067 2.672-14.719 4.094-19.64-1.836 4.521-3.766 11.076-5.758 19.468-10.195-1.111-20.102-3.589-26.875-7.337 8.039-5.914 15.937-10.095 22.984-12.358-8.101 2.49-16.359 6.313-24.429 11.504-4.641-2.893-7.438-6.474-7.289-10.696 5.117-1.705 10.062-2.919 14.726-3.603a123.724 123.724 0 0 0-14.672 2.933l.071-.483-.289.532c-18.258 4.823-36.329 14.021-51.61 28.252-1.445-3.181-2.211-6.412-2.203-9.62l.023-.828c-.335 1.456-.562 2.994-.562 4.514-.008 2.415.461 4.838 1.32 7.26-11.953 11.497-22.109 26.168-29.187 44.338-1.305-3.506-1.883-7.061-1.719-10.628.055-.842.133-1.657.242-2.491a24.707 24.707 0 0 0-1.484 7.163c-.149 3.257.414 6.493 1.57 9.681-.648 1.78-1.258 3.59-1.836 5.432-3.383 10.813-5.07 22.952-4.539 35.815-3.078-4.369-5.367-8.833-6.765-13.325.828 5.954 3.234 11.848 7.015 17.541 1.742 22.015 10.063 45.952 27.594 69.077-4.578-2.415-8.891-4.989-12.867-7.722 4.492 3.526 9.343 6.818 14.492 9.854a175.26 175.26 0 0 0 14.351 16.087 194.659 194.659 0 0 1-11.828-14.664c7.172 4.043 14.875 7.597 23.024 10.612a138.405 138.405 0 0 0 12.679 17.508 158.368 158.368 0 0 1-10.914-16.859c14.211 5.086 29.664 8.522 45.727 10.014a614.945 614.945 0 0 0-.016 18.598c.305-5.591.75-11.766 1.282-18.461 2.351.194 4.71.359 7.07.471 15.992.842 31.68-.331 46.453-3.237-5.922 6.619-12.711 13.023-20.523 19.109a136.754 136.754 0 0 0 23.164-19.661c14.343-3.043 27.75-7.749 39.656-13.918-7.414 7.97-15.766 14.566-24.797 19.598 11.586-5.548 21.906-13.311 30.594-22.787 4.578-2.67 8.929-5.541 12.945-8.652-3.523 2.448-7.351 4.762-11.422 6.921 7.813-8.915 14.258-19.239 18.946-30.625 2.062-5.012 3.765-10.248 5.148-15.631 4.281-4.272 7.422-8.854 9.398-13.727l.102-.352c-2.195 3.65-5.079 7.121-8.586 10.364"/><path fill="#410600" d="M580.373 281.187v-39.742l24.117.286 2.516-8.122-26.633.286v-33.679c7.141-.261 29.461.8 29.461.8l1.711-7.855h-50.75c.945 1.498 1.477 6.669 1.477 10.008v74.834c0 8.449 1.969 11.121 10.898 11.121h39.039l1.711-9.647c-6.07 1.71-22.578 1.71-33.547 1.71m-35.734-63.755c0-15.737-10.164-24.778-34.891-24.778-10.773 0-16.703.146-25.242.513.945 1.492 1.477 6.656 1.477 10.002v86.021h18.414v-90.381c12.813-1.206 22.664 5.611 22.664 19.589 0 16.63-9.328 21.607-17.258 22.001v4.53s15.906 28.783 24.883 44.261h20.805c-9.328-11.38-24.555-39.51-29.078-48.219 11.601-4.065 18.226-13.498 18.226-23.539m-117.711 65.795v-84.418c12.805-1.206 22.109 2.086 22.109 16.071 0 16.624-8.57 19.961-16.5 20.361v5.696c16.234.793 21.227 9.215 21.227 19.981 0 18.917-15.336 25.467-26.836 22.309m19.156-46.473c13.492-3.378 20.523-11.933 20.523-22.848 0-14.243-12.563-21.253-34.344-21.253-10.781 0-16.695.146-25.234.513.945 1.492 1.477 6.656 1.477 10.002v77.319c0 6.224 5.609 10.235 23.961 10.235 25.023 0 39.211-12.261 39.211-30.624 0-13.358-10.219-21.585-25.594-23.344m-105.391 16.909l16.656-48.911 13.406 48.911h-30.062zm31.594-60.497H352.92s-27.125 74.814-30.664 84.076c-3.547 9.282-7.094 12-7.094 12h13.422l9.531-27.978h34.719l7.648 27.917h20.477s-2.523-4.05-4.43-10.239c-1.898-6.203-24.242-85.776-24.242-85.776m-41.328.119h-12.508l-27.742 80.872-25.688-96.302h-24.257c1.882 1.865 4.203 5.043 6.5 11.953 2.461 7.436 26.343 88.434 28.843 99.521h18.336s28.477-76.968 31.102-83.864c2.625-6.902 5.414-12.18 5.414-12.18"/><path fill="#410600" d="M536.506 120.589c4.922 0 7.57 3.365 7.57 9.935 0 9.595-4.805 13.118-19.563 11.865.602-17.136 6.118-21.8 11.993-21.8m18.047 11.627c0-9.994-7.078-15.265-18.141-15.265-14.273 0-25.031 11.947-25.031 27.983 0 15.798 8.695 27.783 25.781 27.783 8.703 0 13.352-3.696 16.227-7.188l-1.453-2.079c-2.57 2.265-6.109 3.839-11.422 3.839-10.797 0-16.055-9.143-16.055-21.728v-.048c19.07 3.487 30.094-2.51 30.094-13.297m-60.61 23.079c0 10.167-2.984 13.727-9.023 13.727-6.797 0-9.508-3.285-9.508-14.119v-36.65h-13.375c.953 1.498 1.477 6.654 1.477 9.999v28.316c0 10.381 5.164 16.117 20.945 16.117 13.328 0 19.844-5.683 19.844-19.762v-34.671h-10.359v37.043zm76.649-25.804c0-4.704 3.539-7.89 8.305-7.89 3.844 0 8.047 1.347 11.039 2.933l1.352-2.325c-1.953-1.953-7.156-5.164-13.867-5.164-9.859 0-16.805 6.583-16.805 15.277 0 17.496 23.102 16.31 23.102 27.131 0 4.544-2.695 8.702-11.68 8.702-4.523 0-8.406-1.533-10.883-3.132l-1.063 2.524c2.969 2.393 6.992 5.157 15.383 5.157 10.523 0 18.547-5.057 18.547-16.357-.001-15.923-23.43-15.222-23.43-26.856m-229.321 30.481c-1.625 2.373-4.68 5.012-10.211 5.012-4.578 0-7.609-3.093-7.609-8.314 0-8.243 8.07-11.448 17.82-12.021v15.323zm11.719-26.103c0-8.903-5.031-16.791-17.313-16.791-7.695 0-13.883 2.872-18.07 6.55l1.234 2.251s4.219-3.371 10.938-3.371c7.43 0 11.492 3.745 11.492 10.987v7.176c-9.234.867-29.672 2.238-29.672 16.836 0 7.909 5.234 15.164 13.773 15.164 7.523 0 12.188-2.978 16.492-8.374l.547 3.498a3.995 3.995 0 0 0 3.977 3.491h7.867c-.367-1.28-1.008-5.137-1.008-7.608.001-2.486-.257-13.86-.257-29.809m-62.148-18.404v48.671c0 15.332-3.274 19.522-17.078 27.052l1.062 3.558c21.164-8.581 28.977-15.964 28.977-34.893v-54.415h-15.335c.944 1.5 2.374 6.683 2.374 10.027m97.906 52.449c-10.344 0-15.398-9.261-15.398-22.36 0-16.636 6.586-23.931 16.555-23.931 3.844 0 8.32 1.531 10.422 3.118l.891-2.514c-2.508-2.385-7.109-5.162-14.219-5.162-16.859 0-26.508 11.893-26.508 29.47 0 15.323 7.914 26.203 25.273 26.203 9.039 0 14.172-4.397 16.281-7.196l-1.586-2.078c-2.047 2.219-6.484 4.45-11.711 4.45m40.648.846c-8.547 0-13.633-7.268-13.633-23.885 0-15.218 4.969-23.879 13.633-23.879 9 0 13.625 8.235 13.625 23.879 0 16.503-6.062 23.885-13.625 23.885m14.016-.006c7.344-4.664 12.055-13.139 12.055-23.879 0-16.79-9.594-27.83-26.07-27.83-14.539 0-26.078 11.233-26.078 27.83 0 18.049 10.023 27.837 26.078 27.837 3.609 0 6.992-.672 10.063-1.913 11.109 7.236 24.508 16.997 33.828 16.997 5.852 0 14.367-6.955 14.367-6.955l-.945-1.454c-10.587 3.918-27.665-2.971-43.298-10.633m48.492-106.746c-10.773-2.806-13.719-4.059-13.719-7.481 0-4.519 6.547-5.431 12.039-5.431 5.648 0 9.914 1.746 13.68 3.317.664.308 1.414.433 2.359.433 3.461 0 5.016-2.584 5.016-5.023 0-3.438-4.961-5.956-9.625-7.128-3.57-.919-7.992-1.479-11.508-1.479-15.016 0-24.016 5.776-24.016 15.598 0 8.715 5.789 13.378 21.313 17.056 10.281 2.498 13.594 4.411 13.594 7.889 0 3.87-4.219 6.144-11.258 6.144-7.375 0-10.609-1.912-14.734-4.278l-1.352-.8c-.992-.546-1.953-.799-3.039-.799-3.047 0-5.141 1.953-5.141 4.771 0 1.806 1.133 3.632 3.273 5.178 4.969 3.464 13.156 5.71 20.836 5.71 14.664 0 23.461-6.15 23.461-16.465.001-10.73-9.14-14.047-21.179-17.212m-40.625-22.487c-3.086 0-5.508 2.313-5.508 5.264v30.289L417.24 41.4c-.93-1.139-2.594-1.88-4.094-1.88-3.297 0-5.781 2.292-5.781 5.264v45.395c0 2.831 2.516 5.189 5.523 5.189 3.148 0 5.57-2.292 5.57-5.189V59.85l28.586 33.62c1.094 1.259 2.469 1.898 4.234 1.898 3.133 0 5.586-2.292 5.586-5.189V44.784c.001-2.951-2.452-5.263-5.585-5.263m82.133 33.614l7.266-18.05 7.25 18.05h-14.516zm11.938-30.689c-.828-1.959-2.398-2.926-4.672-2.926-2.195 0-3.797 1.013-4.641 2.926l-20.102 45.54c-.359.712-.57 1.459-.57 2.186 0 2.545 1.938 5.196 5.195 5.196 2.594 0 3.813-1.566 4.578-2.979l4.32-9.401h22.477l4.297 9.401c.742 1.412 1.898 2.979 4.57 2.979 3.25 0 5.156-2.651 5.156-5.196 0-.727-.156-1.474-.492-2.152L545.35 42.446zM369.318 73.135l7.258-18.05 7.25 18.05h-14.508zm11.922-30.689c-.852-1.959-2.414-2.926-4.664-2.926-2.227 0-3.82 1.013-4.656 2.926l-20.133 45.54c-.32.712-.531 1.459-.531 2.186 0 2.545 1.953 5.196 5.18 5.196 2.609 0 3.805-1.566 4.594-2.979l4.281-9.401h22.484l4.336 9.401c1.055 2.093 2.469 2.979 4.523 2.979 3.258 0 5.227-2.651 5.227-5.196 0-.727-.211-1.474-.547-2.152L381.24 42.446zm-52.578 21.347h-18.234V50.375h18.234c5.5 0 7.969 3.258 7.969 6.495 0 3.319-2.485 6.923-7.969 6.923m20.117-7.015c0-10.667-7.695-16.604-21.633-16.604h-22.734c-3.367 0-6.008 2.397-6.008 5.503V89.87c0 3.099 2.641 5.498 6.008 5.498 3.359 0 6.016-2.399 6.016-5.498V73.414h16.805l10.188 18.982c1.055 1.992 2.828 2.972 5.32 2.972 3.773 0 6.039-2.792 6.039-5.498 0-.746-.258-1.53-.711-2.403l-8.797-16.11c6.14-2.687 9.507-7.817 9.507-14.579m259.407-16.603h-41.188c-3.188 0-5.75 2.305-5.75 5.229 0 2.853 2.617 5.223 5.75 5.223h14.656v39.118c0 3.204 2.57 5.629 5.891 5.629 3.383 0 6.125-2.519 6.125-5.629V50.627h14.516c3.234 0 5.742-2.271 5.742-5.223 0-2.891-2.547-5.229-5.742-5.229m-320.485 0h-41.203c-3.195 0-5.727 2.305-5.727 5.229 0 2.853 2.586 5.223 5.727 5.223h14.641v39.118c0 3.204 2.609 5.629 5.914 5.629 3.375 0 6.117-2.519 6.117-5.629V50.627h14.531c3.219 0 5.766-2.271 5.766-5.223 0-2.891-2.618-5.229-5.766-5.229"/><path fill="#F37021" d="M101.842 223.329c-23.719-6.894-36.008-14.348-36.008-14.348s3.086 11.477 17.07 22.483c13.969 11.007 29.258 16.955 47.727 16.769 18.453-.18 36.898-9.647 46.109-16.526 11.641-8.695 17.188-18.668 19.25-22.98-19.25 22.98-70.429 21.502-94.148 14.602m48.578-10.475c4.945-2.837 26.156-15.267 25.227-51.965-1.266-41.5-27.922-47.862-27.922-47.862s-8.071-2.07-11.414 5.265c-5.024 12.8-9.024 23.856-8.407 47.718.61 23.857 1.664 42.71-4.586 42.71-4.5 0-4.835-28.521-3.671-44.544.921-12.739 4.492-23.069 6.062-32.214h.008l.023-.137c.336-1.947.555-3.844.664-5.693.516-5.314 1.805-16.728 10.227-20.247 0 0-23.141.345-34.359 31.641-11.219 31.295-5.149 56.564 4.625 69.47 9.773 12.909 33.968 10.675 43.523 5.858"/><path fill="#410600" d="M610.951 386.075h-12.977v-13.959h11.197c1.666 0 2.986-1.145 2.986-2.574 0-1.487-1.32-2.689-2.986-2.689h-11.197v-10.927h12.805c1.666 0 2.986-1.202 2.986-2.689 0-1.43-1.32-2.574-2.986-2.574H594.93c-1.608 0-2.928 1.145-2.928 2.574v35.528c0 1.488 1.319 2.632 2.928 2.632h16.021c1.666 0 2.988-1.144 2.988-2.632 0-1.545-1.322-2.69-2.988-2.69m-47.086-18.821v-11.328h6.49c2.985 0 5.396 2.517 5.396 5.664 0 3.146-2.411 5.664-5.396 5.664h-6.49zm17.744 20.996l-5.627-17.106c3.445-1.945 5.742-5.492 5.742-9.554 0-6.065-5.111-10.928-11.369-10.928h-9.476c-1.608 0-2.986 1.145-2.986 2.574v35.871c0 1.431 1.378 2.632 2.986 2.632 1.665 0 2.985-1.201 2.985-2.632v-16.591c5.857 0 6.604-.114 6.662-.172l5.397 17.621c.459 1.087 1.665 1.773 2.871 1.773 2.067 0 3.216-1.888 2.871-3.433l-.056-.055zm-46.34 3.489c1.321 0 2.47-.915 2.814-1.944 3.215-11.729 6.776-24.372 10.049-36.101.401-1.545-.976-3.376-2.871-3.376-1.321 0-2.47.858-2.813 2.003l-2.758 10.184-4.421 18.422-4.594-19.108-2.642-9.497c-.344-1.145-1.494-2.003-2.813-2.003-1.896 0-3.274 1.717-2.872 3.376l10.051 36.157c.286 1.086 1.492 1.887 2.87 1.887m-35.603-14.817l4.306-15.79 4.192 15.79h-8.498zm18.146 11.442l-11.026-36.157c-.401-1.088-1.549-1.889-2.813-1.889-1.319 0-2.526.801-2.928 1.889l-10.911 36.157v-.058c-.631 1.773 1.091 3.433 2.814 3.433 1.32 0 2.526-.801 2.871-1.888.803-2.574 1.492-5.035 2.297-7.666h11.6l2.412 7.666c.4 1.144 1.492 1.888 2.756 1.888 2.066 0 3.33-1.831 2.986-3.375h-.058zm-40.083-38.046c-1.608 0-2.929 1.145-2.929 2.632v13.902h-12.116V352.95c0-1.487-1.321-2.632-2.929-2.632-1.665 0-3.043 1.145-3.043 2.632v36.101c0 1.487 1.378 2.688 3.043 2.688 1.607 0 2.929-1.201 2.929-2.688v-16.935H474.8v16.935c0 1.487 1.32 2.688 2.929 2.688 1.665 0 2.986-1.201 2.986-2.688V352.95c.001-1.487-1.32-2.632-2.986-2.632m-49.89 35.757h-12.978v-13.959h11.197c1.666 0 2.986-1.145 2.986-2.574 0-1.487-1.32-2.689-2.986-2.689h-11.197v-10.927h12.806c1.665 0 2.985-1.202 2.985-2.689 0-1.43-1.32-2.574-2.985-2.574h-15.849c-1.608 0-2.929 1.145-2.929 2.574v35.528c0 1.488 1.32 2.632 2.929 2.632h16.021c1.666 0 2.985-1.144 2.985-2.632 0-1.545-1.319-2.69-2.985-2.69m-31.238-.343h-13.207V352.95c0-1.487-1.321-2.632-2.985-2.632-1.666 0-2.986 1.145-2.986 2.632v35.472c0 1.486 1.32 2.631 2.986 2.631h16.192c1.665 0 2.986-1.145 2.986-2.631 0-1.488-1.321-2.69-2.986-2.69m-49.029-14.818h-12.403c-3.388.173-3.159 4.635 0 4.635h12.403c3.388 0 3.273-4.635 0-4.635m-41.623 15.161h-12.977v-13.959h11.197c1.666 0 2.986-1.145 2.986-2.574 0-1.487-1.32-2.689-2.986-2.689h-11.197v-10.927h12.805c1.666 0 2.986-1.202 2.986-2.689 0-1.43-1.32-2.574-2.986-2.574h-15.849c-1.608 0-2.928 1.145-2.928 2.574v35.528c0 1.488 1.32 2.632 2.928 2.632h16.021c1.666 0 2.987-1.144 2.987-2.632.001-1.545-1.321-2.69-2.987-2.69m-32.729.115h-3.905v-30.322h3.905c1.665 0 3.043-1.087 3.043-2.574s-1.378-2.632-3.043-2.632h-13.84c-1.722 0-3.043 1.145-3.043 2.632s1.321 2.574 3.043 2.574h3.963v30.322h-3.963c-1.722 0-3.043 1.029-3.043 2.574 0 1.488 1.321 2.632 3.043 2.632h13.84c1.665 0 3.043-1.144 3.043-2.632 0-1.544-1.378-2.574-3.043-2.574m-44.273-30.264h5.34c3.388 0 6.087 2.859 6.087 6.408v17.334c0 3.548-2.699 6.407-6.087 6.407h-5.34v-30.149zm5.34 35.47c6.661 0 12.059-5.264 12.059-11.729v-17.334c0-6.466-5.398-11.672-12.059-11.672h-8.269c-1.665 0-3.043 1.145-3.043 2.574v35.528c0 1.488 1.378 2.632 3.043 2.632h8.269zm-26.817.343c.287 0 .46 0 .804-.113l-.115.057c1.321-.343 2.297-1.373 2.297-2.632V352.95c0-1.487-1.321-2.632-2.986-2.632s-2.986 1.145-2.986 2.632l.517 25.174-13.207-26.317c-.46-.801-1.551-1.488-2.642-1.488-1.493 0-2.986 1.145-2.986 2.632v36.101c0 1.487 1.378 2.688 2.986 2.688 1.665 0 2.986-1.201 2.986-2.688l-.517-25.23 13.208 26.433c.459.855 1.608 1.484 2.641 1.484m-48.695-14.817l4.307-15.79 4.192 15.79h-8.499zm18.146 11.442l-11.025-36.157c-.402-1.088-1.551-1.889-2.814-1.889-1.321 0-2.527.801-2.929 1.889l-10.91 36.157v-.058c-.632 1.773 1.091 3.433 2.813 3.433 1.321 0 2.527-.801 2.872-1.888.804-2.574 1.493-5.035 2.297-7.666h11.599l2.412 7.666c.402 1.144 1.493 1.888 2.756 1.888 2.068 0 3.331-1.831 2.986-3.375h-.057zm-40.196 3.375c1.608 0 2.929-1.201 2.929-2.688V352.95c0-1.259-1.149-2.632-2.929-2.632-1.206 0-2.24.63-2.699 1.488-3.331 6.751-6.833 14.131-10.221 20.882l-10.164-20.882c-.402-.858-1.493-1.488-2.642-1.488-1.608 0-2.928 1.145-2.928 2.632v36.101c0 1.487 1.32 2.688 2.928 2.688 1.665 0 2.986-1.201 2.986-2.688v-23.857l7.178 14.646c.517.915 1.493 1.43 2.642 1.43 1.206 0 2.182-.629 2.699-1.487l7.235-14.646v23.914c0 1.487 1.321 2.688 2.986 2.688m-56.906-24.485v-11.328h6.489c2.986 0 5.397 2.517 5.397 5.664 0 3.146-2.411 5.664-5.397 5.664h-6.489zm17.744 20.996l-5.628-17.106c3.446-1.945 5.743-5.492 5.743-9.554 0-6.065-5.111-10.928-11.37-10.928h-9.475c-1.608 0-2.986 1.145-2.986 2.574v35.871c0 1.431 1.378 2.632 2.986 2.632 1.665 0 2.986-1.201 2.986-2.632v-16.591c5.857 0 6.603-.114 6.661-.172l5.398 17.621c.459 1.087 1.665 1.773 2.871 1.773 2.067 0 3.216-1.888 2.871-3.433l-.057-.055zm-47.375-32.667c3.331 0 6.087 2.917 6.087 6.406v18.079c0 3.49-2.756 6.408-6.087 6.408-3.388 0-6.144-2.918-6.144-6.408v-18.079c0-3.489 2.756-6.406 6.144-6.406m0 36.156c6.662 0 12.059-5.206 12.059-11.671v-18.079c0-6.406-5.397-11.671-12.059-11.671-6.661 0-12.059 5.265-12.059 11.671v18.079c0 6.465 5.398 11.671 12.059 11.671m-26.759 0c.287 0 .459 0 .804-.113l-.115.057c1.321-.343 2.297-1.373 2.297-2.632V352.95c0-1.487-1.321-2.632-2.986-2.632s-2.986 1.145-2.986 2.632l.517 25.174-13.208-26.317c-.459-.801-1.55-1.488-2.641-1.488-1.493 0-2.986 1.145-2.986 2.632v36.101c0 1.487 1.378 2.688 2.986 2.688 1.665 0 2.986-1.201 2.986-2.688L7.58 363.82l13.207 26.433c.46.857 1.608 1.486 2.642 1.486"/><path fill="none" stroke="#410600" stroke-width="4.249" stroke-linecap="round" d="M2.125 327.152h97.112m29.809 0h482.767"/></svg>